<svg width="343" height="136" viewBox="0 0 343 136" fill="none" xmlns="http://www.w3.org/2000/svg">
<path d="M343 80.4014H0V103.373H343V80.4014Z" fill="#FFCC66"/>
<path d="M50.379 30.5362C39.5428 28.814 33.8395 35.3583 27.5659 42.0748C24.9043 45.0025 17.8703 56.7134 17.6802 56.3689C17.6802 56.1967 19.9615 47.5858 20.5318 45.1747L20.912 43.6248C20.912 38.6304 17.8703 33.9805 11.9769 34.1528C8.74503 34.325 7.98459 35.8749 7.22416 38.286C4.18241 50.5135 0.380219 68.9409 0 81.3406C0 85.4738 1.14066 86.6794 5.13295 88.5738C10.2659 90.9848 13.878 85.9905 15.2088 82.8905L15.589 82.0294L22.4329 65.8409C23.9538 62.741 25.4747 59.4688 27.3758 56.5411C31.1779 49.8246 35.9307 43.797 41.8241 39.6637C46.3867 36.5638 50.7592 34.1528 55.8922 37.5971C59.3141 40.0082 58.3636 31.9139 50.379 30.5362ZM27.3758 50.3413C18.6307 59.6411 19.0109 57.5744 26.8054 49.308C27.5659 48.2747 34.0296 39.3193 34.9801 41.5581C35.3603 42.247 28.3263 49.4802 27.3758 50.3413ZM31.9384 39.1471V39.4915C30.2274 41.9026 29.8472 39.4915 31.9384 39.1471ZM107.412 51.3746L105.701 52.5801C96.3855 60.5022 89.1613 68.0798 77.5646 75.6574C74.5229 78.5851 69.58 79.4462 65.5877 80.4795C59.6944 82.0294 54.1812 81.5128 54.5614 74.1074C54.7515 73.2463 54.3713 72.5574 54.5614 71.6964C55.1317 69.2853 54.7515 66.3576 56.6526 64.1187L60.2647 64.9798C69.58 67.5631 94.2943 42.5915 77.9449 33.1194C72.8119 30.1917 67.6789 30.364 63.4965 34.325C61.5955 36.0472 59.6944 38.1138 58.3636 40.3526C55.512 44.8303 53.0405 49.4802 50.379 54.1301L48.2878 61.5355C48.2878 62.2243 48.2878 63.0854 48.0977 63.7743C47.1471 68.5964 47.5274 73.2463 48.8581 78.0684C51.3295 85.4738 60.2647 92.0181 70.9108 88.5738C75.6635 87.0238 79.4657 84.2683 82.8877 81.1684C88.591 76.174 93.7239 70.3186 98.8569 64.6354C101.709 61.5355 105.131 58.4355 107.602 55.1634C108.552 53.9579 108.743 53.4412 108.933 53.0968C109.313 52.7523 108.933 52.4079 107.412 51.3746ZM73.1921 38.286C73.5723 43.9692 66.7284 52.7523 59.6944 55.1634C62.1658 48.7913 68.6295 40.6971 73.1921 38.286ZM82.3174 77.8962C89.5415 70.8353 94.2943 64.6354 102.089 57.5744C95.0547 64.8076 91.0624 72.213 82.3174 77.8962ZM144.863 50.6857C141.822 53.7856 139.16 57.0578 136.308 60.5022C134.407 63.0854 129.655 68.0798 127.754 70.4908C116.917 83.5794 112.355 87.3682 111.214 84.6127L114.446 65.6687L115.587 61.0188C115.777 60.8466 115.777 60.6744 115.777 60.5022L118.248 48.9635C122.621 32.9472 125.472 23.1308 129.465 6.77004C130.795 1.77571 127.183 1.25906 120.719 0.0535316C119.008 -0.290905 116.157 1.08684 115.777 2.46459C111.974 15.5532 100.758 48.4469 98.6668 76.3462C98.4767 79.9628 101.518 85.646 103.8 88.9182C107.792 94.257 114.636 91.6737 119.959 86.8516C130.035 78.0684 143.723 56.8856 146.574 52.2357C147.145 51.2024 147.335 51.719 144.863 50.6857ZM109.503 50.6857C108.743 50.6857 110.073 45.8636 109.503 45.6914C109.883 45.0025 110.073 44.3136 110.263 43.6248C110.454 43.2803 115.206 22.4419 116.347 21.9253L109.503 50.6857ZM106.841 65.6687L106.651 65.8409C106.271 64.4632 106.651 63.9465 107.412 63.6021L106.841 65.6687ZM204.368 52.4079C197.524 63.2577 183.265 84.9572 180.604 83.7516C177.752 82.5461 180.034 75.6574 183.265 58.78C185.167 48.2747 191.25 45.0025 184.216 42.5915C176.231 40.0082 174.52 43.1081 172.429 49.8246C170.908 54.6467 171.289 54.3023 168.817 58.9522C161.973 69.8019 154.369 81.8572 151.707 80.6517C148.856 79.274 149.046 77.5518 152.278 60.8466C154.179 50.1691 160.262 47.0691 153.228 44.6581C145.244 41.9026 143.533 45.0025 141.441 51.8912C137.639 64.4632 135.548 73.763 141.822 85.646C143.913 89.4348 147.145 89.7793 150.567 88.5738C159.122 85.3016 164.445 74.7963 170.148 63.7743C169.197 72.213 169.387 80.3073 172.239 85.646C174.33 89.4348 177.562 89.7793 180.984 88.5738C191.06 84.785 198.284 66.5298 206.269 52.9246C206.079 51.5468 206.079 51.0302 204.368 52.4079ZM147.905 57.7467C147.335 60.1577 143.913 64.4632 144.863 72.3852C145.053 73.5908 144.483 73.763 144.293 73.5908C141.251 70.8353 144.103 63.0854 145.814 59.8133C146.194 58.9522 148.095 56.0245 147.905 57.7467ZM255.127 51.8912C245.811 58.78 240.869 65.8409 233.454 72.3852C190.49 110.445 210.261 49.9968 229.082 44.1414C229.652 44.8303 230.032 45.6914 230.413 46.3803H231.933C233.835 47.2413 235.736 47.2413 236.876 45.5192C238.017 43.797 237.637 41.9026 236.496 39.836C228.131 24.853 213.683 36.9082 208.17 44.8303C201.136 54.819 199.615 62.5688 201.136 75.4852C202.276 85.9905 210.451 95.9791 222.618 87.7127C234.025 79.9628 252.465 57.5744 256.267 53.7856C257.218 52.7523 257.408 53.269 255.127 51.8912ZM213.873 43.2803C212.732 46.0358 209.881 48.2747 208.74 50.8579C208.36 47.5858 212.732 43.4525 213.873 43.2803ZM297.141 30.5362C286.305 28.814 280.602 35.3583 274.328 42.0748C271.666 45.0025 264.632 56.7134 264.442 56.3689C264.442 56.1967 266.724 47.5858 267.294 45.1747L267.674 43.6248C267.674 38.6304 264.632 33.9805 258.739 34.1528C255.507 34.325 254.747 35.8749 253.986 38.286C250.944 50.5135 247.142 68.9409 246.762 81.3406C246.762 85.4738 247.903 86.6794 251.895 88.5738C257.028 90.9848 260.64 85.9905 261.971 82.8905L262.351 82.0294L269.195 65.8409C270.716 62.741 272.237 59.4688 274.138 56.5411C277.94 49.8246 282.693 43.797 288.586 39.6637C293.149 36.5638 297.521 34.1528 302.654 37.5971C306.076 40.0082 305.126 31.9139 297.141 30.5362ZM274.138 50.3413C265.393 59.6411 265.773 57.5744 273.567 49.308C274.328 48.2747 280.792 39.3193 281.742 41.5581C282.122 42.247 275.088 49.4802 274.138 50.3413ZM278.7 39.1471V39.4915C276.989 41.9026 276.609 39.4915 278.7 39.1471ZM341.056 50.6857C337.824 53.7856 334.973 57.0578 332.121 60.5022L322.996 70.4908C300.943 96.3236 303.415 86.1627 311.399 61.0188C313.871 52.9246 319.004 49.8246 310.449 46.7247C302.464 43.9692 300.753 47.0691 299.042 52.9246C295.81 63.7743 291.438 78.7573 298.282 88.9182C302.084 94.257 309.118 91.6737 314.631 86.8516C325.087 78.0684 339.535 56.8856 342.577 52.2357C343.147 51.2024 343.528 51.719 341.056 50.6857ZM313.871 40.5248C315.962 36.9082 317.293 36.0472 319.574 32.9472C322.806 28.4696 320.715 24.853 315.392 24.3363L314.441 24.5085C311.589 25.5418 310.639 38.1138 310.449 40.8693C310.259 43.6248 312.92 42.0748 313.871 40.5248ZM304.745 58.6078C304.365 60.6744 299.232 70.8353 300.563 77.5518C300.943 78.5851 300.373 78.7573 300.183 78.5851C296.951 76.3463 301.514 63.0854 302.844 60.3299C303.225 59.6411 304.935 57.0578 304.745 58.6078Z" fill="#4169E1"/>
<path d="M85.1785 126.149H11.8818V128.302H85.1785V126.149Z" fill="#4169E1"/>
<path d="M331.119 126.149H257.822V128.302H331.119V126.149Z" fill="#4169E1"/>
<path d="M92.2979 127.217C92.2979 125.868 92.5117 124.648 92.9395 123.557C93.3514 122.466 93.9296 121.548 94.6742 120.802C95.4188 120.041 96.2981 119.46 97.312 119.058C98.3259 118.642 99.4349 118.434 100.639 118.434C101.78 118.434 102.778 118.649 103.633 119.079C104.489 119.496 105.194 119.984 105.748 120.543L104.394 121.899C103.902 121.426 103.356 121.046 102.754 120.759C102.152 120.472 101.455 120.328 100.663 120.328C99.7755 120.328 98.9675 120.486 98.2388 120.802C97.51 121.117 96.8922 121.577 96.3852 122.179C95.8782 122.768 95.4822 123.485 95.197 124.332C94.9119 125.179 94.7693 126.126 94.7693 127.174C94.7693 128.236 94.9039 129.197 95.1733 130.058C95.4426 130.905 95.8307 131.63 96.3377 132.233C96.8288 132.835 97.4308 133.302 98.1437 133.632C98.8566 133.962 99.6567 134.127 100.544 134.127C101.463 134.127 102.255 133.962 102.92 133.632C103.601 133.302 104.243 132.835 104.845 132.233L106.2 133.546C105.455 134.321 104.615 134.923 103.681 135.354C102.746 135.785 101.685 136 100.496 136C99.3081 136 98.215 135.806 97.2169 135.419C96.2189 135.017 95.3554 134.443 94.6267 133.696C93.8979 132.95 93.3276 132.032 92.9157 130.941C92.5038 129.836 92.2979 128.594 92.2979 127.217ZM115.753 136C114.564 136 113.487 135.799 112.521 135.397C111.539 134.981 110.691 134.385 109.978 133.61C109.281 132.85 108.734 131.924 108.338 130.833C107.958 129.743 107.768 128.516 107.768 127.152C107.768 125.789 107.958 124.569 108.338 123.493C108.734 122.416 109.281 121.505 109.978 120.759C110.691 120.012 111.539 119.438 112.521 119.036C113.487 118.635 114.564 118.434 115.753 118.434C116.925 118.434 118.002 118.642 118.984 119.058C119.967 119.46 120.814 120.034 121.527 120.78C122.24 121.526 122.787 122.438 123.167 123.514C123.563 124.59 123.761 125.803 123.761 127.152C123.761 128.516 123.563 129.743 123.167 130.833C122.787 131.924 122.24 132.85 121.527 133.61C120.814 134.385 119.967 134.981 118.984 135.397C118.002 135.799 116.925 136 115.753 136ZM115.753 134.127C116.592 134.127 117.345 133.962 118.01 133.632C118.691 133.302 119.27 132.835 119.745 132.233C120.236 131.615 120.616 130.884 120.886 130.037C121.155 129.176 121.29 128.214 121.29 127.152C121.29 126.104 121.155 125.157 120.886 124.311C120.616 123.464 120.236 122.746 119.745 122.158C119.27 121.569 118.691 121.117 118.01 120.802C117.345 120.486 116.592 120.328 115.753 120.328C114.913 120.328 114.153 120.486 113.471 120.802C112.806 121.117 112.228 121.569 111.737 122.158C111.261 122.746 110.889 123.464 110.62 124.311C110.35 125.157 110.216 126.104 110.216 127.152C110.216 128.214 110.35 129.176 110.62 130.037C110.889 130.884 111.261 131.615 111.737 132.233C112.228 132.835 112.806 133.302 113.471 133.632C114.153 133.962 114.913 134.127 115.753 134.127ZM127.777 135.698V118.757H130.581L134.193 127.841L135.572 131.307H135.69L136.997 127.841L140.586 118.757H143.39V135.698H141.132V126.377C141.132 125.617 141.164 124.777 141.227 123.858C141.291 122.954 141.362 122.122 141.441 121.361H141.322L139.825 125.129L136.213 133.998H134.882L131.27 125.129L129.773 121.361H129.654C129.718 122.122 129.789 122.954 129.868 123.858C129.947 124.777 129.987 125.617 129.987 126.377V135.698H127.777ZM148.523 135.698V118.757H151.303L154.939 127.841L156.293 131.307H156.412L157.719 127.841L161.308 118.757H164.112V135.698H161.854V126.377C161.854 125.617 161.886 124.777 161.949 123.858C162.028 122.954 162.1 122.122 162.163 121.361H162.068L160.547 125.129L156.959 133.998H155.604L151.992 125.129L150.519 121.361H150.4C150.448 122.122 150.511 122.954 150.59 123.858C150.669 124.777 150.709 125.617 150.709 126.377V135.698H148.523ZM169.245 135.698V118.757H180.033V120.565H171.621V125.882H178.703V127.712H171.621V133.869H180.319V135.698H169.245ZM186.64 120.479V126.786H189.776C191.234 126.786 192.359 126.514 193.151 125.968C193.927 125.423 194.315 124.605 194.315 123.514C194.315 122.395 193.927 121.605 193.151 121.146C192.359 120.701 191.234 120.479 189.776 120.479H186.64ZM197.214 135.698H194.529L190.038 128.551H186.64V135.698H184.263V118.757H190.109C191.06 118.757 191.939 118.835 192.747 118.993C193.555 119.166 194.252 119.438 194.838 119.811C195.424 120.184 195.876 120.672 196.193 121.275C196.51 121.878 196.668 122.624 196.668 123.514C196.668 124.834 196.288 125.889 195.527 126.679C194.767 127.468 193.753 128.013 192.486 128.315L197.214 135.698ZM199.757 127.217C199.757 125.868 199.963 124.648 200.375 123.557C200.803 122.466 201.389 121.548 202.134 120.802C202.862 120.041 203.742 119.46 204.771 119.058C205.785 118.642 206.886 118.434 208.074 118.434C209.215 118.434 210.213 118.649 211.069 119.079C211.924 119.496 212.629 119.984 213.184 120.543L211.853 121.899C211.362 121.426 210.815 121.046 210.213 120.759C209.611 120.472 208.914 120.328 208.122 120.328C207.219 120.328 206.411 120.486 205.698 120.802C204.969 121.117 204.352 121.577 203.845 122.179C203.322 122.768 202.918 123.485 202.633 124.332C202.347 125.179 202.205 126.126 202.205 127.174C202.205 128.236 202.347 129.197 202.633 130.058C202.902 130.905 203.282 131.63 203.773 132.233C204.264 132.835 204.866 133.302 205.579 133.632C206.292 133.962 207.1 134.127 208.003 134.127C208.906 134.127 209.698 133.962 210.38 133.632C211.061 133.302 211.702 132.835 212.304 132.233L213.635 133.546C212.906 134.321 212.075 134.923 211.14 135.354C210.205 135.785 209.136 136 207.932 136C206.76 136 205.674 135.806 204.676 135.419C203.678 135.017 202.815 134.443 202.086 133.696C201.357 132.95 200.787 132.032 200.375 130.941C199.963 129.836 199.757 128.594 199.757 127.217ZM217.128 135.698V118.757H219.481V135.698H217.128ZM226.967 128.81H232.575L231.696 126.226C231.347 125.279 231.022 124.332 230.721 123.385C230.42 122.452 230.119 121.49 229.818 120.5H229.699C229.414 121.49 229.121 122.452 228.82 123.385C228.519 124.332 228.194 125.279 227.846 126.226L226.967 128.81ZM234.951 135.698L233.169 130.532H226.373L224.566 135.698H222.143L228.464 118.757H231.149L237.494 135.698H234.951ZM240.132 135.698V118.757H242.508V133.869H250.683V135.698H240.132Z" fill="#4169E1"/>
</svg>
