<svg width="24" height="27" viewBox="0 0 24 27" fill="none" xmlns="http://www.w3.org/2000/svg">
<g id="carbon:send-alt" clip-path="url(#clip0_6_2322)">
<path id="Vector" fill-rule="evenodd" clip-rule="evenodd" d="M-0.91875 5.96667C-0.75492 5.2304 -0.352185 4.57302 0.223498 4.10218C0.79918 3.63134 1.51369 3.37495 2.25 3.375H21.75C22.4863 3.37495 23.2008 3.63134 23.7765 4.10218C24.3522 4.57302 24.7549 5.2304 24.9187 5.96667L12 14.065L-0.91875 5.96667ZM-1 7.87V19.71L8.42988 13.78L-1 7.87ZM9.98663 14.7583L-0.689625 21.47C-0.425844 22.0405 -0.00951922 22.5224 0.510895 22.8596C1.03131 23.1969 1.63441 23.3756 2.25 23.375H21.75C22.3655 23.3751 22.9684 23.196 23.4885 22.8585C24.0086 22.5209 24.4246 22.0389 24.688 21.4683L14.0118 14.7567L12 16.0183L9.98663 14.7567V14.7583ZM15.5701 13.7817L25 19.71V7.87L15.5701 13.78V13.7817Z" fill="white"/>
</g>
<defs>
<clipPath id="clip0_6_2322">
<rect width="24" height="26" fill="white" transform="translate(0 0.25)"/>
</clipPath>
</defs>
</svg>
