<svg width="140" height="64" viewBox="0 0 140 64" fill="none" xmlns="http://www.w3.org/2000/svg">
<path d="M139.699 37.3484H0.578125V48.0194H139.699V37.3484Z" fill="#FFCC66"/>
<path d="M21.0119 14.1849C16.6167 13.3849 14.3034 16.4249 11.7588 19.5449C10.6793 20.9049 7.82632 26.3449 7.74921 26.1849C7.74921 26.1049 8.67451 22.1049 8.90584 20.9849L9.06005 20.2649C9.06005 17.9449 7.82632 15.7849 5.43596 15.8649C4.12511 15.9449 3.81668 16.6649 3.50825 17.7849C2.27451 23.4649 0.732342 32.0249 0.578125 37.7849C0.578125 39.7049 1.04078 40.2649 2.66005 41.1449C4.74198 42.2649 6.20704 39.9449 6.7468 38.5049L6.90102 38.1049L9.67692 30.5849C10.2938 29.1449 10.9107 27.6249 11.6817 26.2649C13.2239 23.1449 15.1516 20.3449 17.542 18.4249C19.3926 16.9849 21.1661 15.8649 23.248 17.4649C24.636 18.5849 24.2504 14.8249 21.0119 14.1849ZM11.6817 23.3849C8.13475 27.7049 8.28897 26.7449 11.4504 22.9049C11.7588 22.4249 14.3805 18.2649 14.7661 19.3049C14.9203 19.6249 12.0673 22.9849 11.6817 23.3849ZM13.5323 18.1849V18.3449C12.8384 19.4649 12.6841 18.3449 13.5323 18.1849ZM44.1444 23.8649L43.4504 24.4249C39.6721 28.1049 36.742 31.6249 32.0384 35.1449C30.8046 36.5049 28.7998 36.9049 27.1805 37.3849C24.7902 38.1049 22.554 37.8649 22.7082 34.4249C22.7854 34.0249 22.6311 33.7049 22.7082 33.3049C22.9396 32.1849 22.7854 30.8249 23.5564 29.7849L25.0215 30.1849C28.7998 31.3849 38.8239 19.7849 32.1926 15.3849C30.1107 14.0249 28.0287 14.1049 26.3323 15.9449C25.5613 16.7449 24.7902 17.7049 24.2504 18.7449C23.0938 20.8249 22.0914 22.9849 21.0119 25.1449L20.1637 28.5849C20.1637 28.9049 20.1637 29.3049 20.0866 29.6249C19.701 31.8649 19.8552 34.0249 20.395 36.2649C21.3974 39.7049 25.0215 42.7449 29.3396 41.1449C31.2673 40.4249 32.8094 39.1449 34.1974 37.7049C36.5107 35.3849 38.5926 32.6649 40.6745 30.0249C41.8311 28.5849 43.2191 27.1449 44.2215 25.6249C44.607 25.0649 44.6841 24.8249 44.7613 24.6649C44.9155 24.5049 44.7613 24.3449 44.1444 23.8649ZM30.2649 17.7849C30.4191 20.4249 27.6432 24.5049 24.7902 25.6249C25.7926 22.6649 28.4143 18.9049 30.2649 17.7849ZM33.9661 36.1849C36.8962 32.9049 38.8239 30.0249 41.9854 26.7449C39.1323 30.1049 37.5131 33.5449 33.9661 36.1849ZM59.3347 23.5449C58.101 24.9849 57.0215 26.5049 55.8649 28.1049C55.0938 29.3049 53.1661 31.6249 52.395 32.7449C47.9998 38.8249 46.1492 40.5849 45.6866 39.3049L46.9974 30.5049L47.46 28.3449C47.5372 28.2649 47.5372 28.1849 47.5372 28.1049L48.5396 22.7449C50.3131 15.3049 51.4697 10.7449 53.089 3.14487C53.6287 0.824866 52.1637 0.584867 49.542 0.0248668C48.848 -0.135133 47.6914 0.504866 47.5372 1.14487C45.995 7.22487 41.4456 22.5049 40.5974 35.4649C40.5203 37.1449 41.754 39.7849 42.6793 41.3049C44.2986 43.7849 47.0745 42.5849 49.2335 40.3449C53.3203 36.2649 58.8721 26.4249 60.0287 24.2649C60.2601 23.7849 60.3372 24.0249 59.3347 23.5449ZM44.9926 23.5449C44.6842 23.5449 45.2239 21.3049 44.9926 21.2249C45.1468 20.9049 45.2239 20.5849 45.301 20.2649C45.3781 20.1049 47.3058 10.4249 47.7685 10.1849L44.9926 23.5449ZM43.9131 30.5049L43.836 30.5849C43.6817 29.9449 43.836 29.7049 44.1444 29.5449L43.9131 30.5049ZM83.4697 24.3449C80.6938 29.3849 74.9107 39.4649 73.8311 38.9049C72.6745 38.3449 73.5998 35.1449 74.9107 27.3049C75.6817 22.4249 78.1492 20.9049 75.2962 19.7849C72.0576 18.5849 71.3637 20.0249 70.5155 23.1449C69.8986 25.3849 70.0528 25.2249 69.0504 27.3849C66.2745 32.4249 63.1902 38.0249 62.1107 37.4649C60.954 36.8249 61.0311 36.0249 62.342 28.2649C63.1131 23.3049 65.5805 21.8649 62.7275 20.7449C59.489 19.4649 58.795 20.9049 57.9468 24.1049C56.4046 29.9449 55.5564 34.2649 58.101 39.7849C58.9492 41.5449 60.2601 41.7049 61.648 41.1449C65.1179 39.6249 67.2769 34.7449 69.5902 29.6249C69.2046 33.5449 69.2817 37.3049 70.4384 39.7849C71.2866 41.5449 72.5974 41.7049 73.9854 41.1449C78.0721 39.3849 81.0022 30.9049 84.2408 24.5849C84.1637 23.9449 84.1637 23.7049 83.4697 24.3449ZM60.5685 26.8249C60.3372 27.9449 58.9492 29.9449 59.3347 33.6249C59.4119 34.1849 59.1805 34.2649 59.1034 34.1849C57.8697 32.9049 59.0263 29.3049 59.7203 27.7849C59.8745 27.3849 60.6456 26.0249 60.5685 26.8249ZM104.058 24.1049C100.279 27.3049 98.2745 30.5849 95.2673 33.6249C77.8408 51.3049 85.8601 23.2249 93.4938 20.5049C93.7251 20.8249 93.8793 21.2249 94.0335 21.5449H94.6504C95.4215 21.9449 96.1926 21.9449 96.6552 21.1449C97.1179 20.3449 96.9637 19.4649 96.501 18.5049C93.1082 11.5449 87.248 17.1449 85.0119 20.8249C82.1588 25.4649 81.542 29.0649 82.1588 35.0649C82.6215 39.9449 85.9372 44.5849 90.8721 40.7449C95.4986 37.1449 102.978 26.7449 104.52 24.9849C104.906 24.5049 104.983 24.7449 104.058 24.1049ZM87.3251 20.1049C86.8625 21.3849 85.7058 22.4249 85.2432 23.6249C85.089 22.1049 86.8625 20.1849 87.3251 20.1049ZM121.099 14.1849C116.703 13.3849 114.39 16.4249 111.846 19.5449C110.766 20.9049 107.913 26.3449 107.836 26.1849C107.836 26.1049 108.761 22.1049 108.993 20.9849L109.147 20.2649C109.147 17.9449 107.913 15.7849 105.523 15.8649C104.212 15.9449 103.903 16.6649 103.595 17.7849C102.361 23.4649 100.819 32.0249 100.665 37.7849C100.665 39.7049 101.128 40.2649 102.747 41.1449C104.829 42.2649 106.294 39.9449 106.834 38.5049L106.988 38.1049L109.764 30.5849C110.381 29.1449 110.997 27.6249 111.768 26.2649C113.311 23.1449 115.238 20.3449 117.629 18.4249C119.479 16.9849 121.253 15.8649 123.335 17.4649C124.723 18.5849 124.337 14.8249 121.099 14.1849ZM111.768 23.3849C108.221 27.7049 108.376 26.7449 111.537 22.9049C111.846 22.4249 114.467 18.2649 114.853 19.3049C115.007 19.6249 112.154 22.9849 111.768 23.3849ZM113.619 18.1849V18.3449C112.925 19.4649 112.771 18.3449 113.619 18.1849ZM138.911 23.5449C137.6 24.9849 136.443 26.5049 135.287 28.1049L131.585 32.7449C122.641 44.7449 123.643 40.0249 126.882 28.3449C127.884 24.5849 129.966 23.1449 126.496 21.7049C123.258 20.4249 122.564 21.8649 121.87 24.5849C120.559 29.6249 118.785 36.5849 121.561 41.3049C123.103 43.7849 125.956 42.5849 128.193 40.3449C132.434 36.2649 138.294 26.4249 139.528 24.2649C139.759 23.7849 139.913 24.0249 138.911 23.5449ZM127.884 18.8249C128.732 17.1449 129.272 16.7449 130.197 15.3049C131.508 13.2249 130.66 11.5449 128.501 11.3049L128.115 11.3849C126.959 11.8649 126.573 17.7049 126.496 18.9849C126.419 20.2649 127.499 19.5449 127.884 18.8249ZM124.183 27.2249C124.029 28.1849 121.947 32.9049 122.487 36.0249C122.641 36.5049 122.409 36.5849 122.332 36.5049C121.021 35.4649 122.872 29.3049 123.412 28.0249C123.566 27.7049 124.26 26.5049 124.183 27.2249Z" fill="#4169E1"/>
<path d="M35.1266 58.5994H5.39746V59.5994H35.1266V58.5994Z" fill="#34435C"/>
<path d="M134.88 58.5994H105.151V59.5994H134.88V58.5994Z" fill="#34435C"/>
<path d="M38.0142 59.0954C38.0142 58.4687 38.1009 57.902 38.2744 57.3954C38.4415 56.8887 38.676 56.462 38.978 56.1154C39.28 55.762 39.6367 55.492 40.0479 55.3054C40.4591 55.112 40.9089 55.0154 41.3973 55.0154C41.8599 55.0154 42.2648 55.1154 42.6118 55.3154C42.9587 55.5087 43.2447 55.7354 43.4696 55.9954L42.9202 56.6254C42.721 56.4054 42.4993 56.2287 42.2551 56.0954C42.0109 55.962 41.7282 55.8954 41.4069 55.8954C41.0471 55.8954 40.7194 55.9687 40.4238 56.1154C40.1282 56.262 39.8776 56.4754 39.672 56.7554C39.4664 57.0287 39.3057 57.362 39.1901 57.7554C39.0744 58.1487 39.0166 58.5887 39.0166 59.0754C39.0166 59.5687 39.0712 60.0154 39.1804 60.4154C39.2897 60.8087 39.4471 61.1454 39.6527 61.4254C39.8519 61.7054 40.0961 61.922 40.3852 62.0754C40.6744 62.2287 40.9989 62.3054 41.3587 62.3054C41.7314 62.3054 42.0527 62.2287 42.3226 62.0754C42.5989 61.922 42.8591 61.7054 43.1033 61.4254L43.6527 62.0354C43.3507 62.3954 43.0101 62.6754 42.631 62.8754C42.2519 63.0754 41.8214 63.1754 41.3395 63.1754C40.8575 63.1754 40.4142 63.0854 40.0093 62.9054C39.6045 62.7187 39.2543 62.452 38.9587 62.1054C38.6632 61.7587 38.4318 61.332 38.2648 60.8254C38.0977 60.312 38.0142 59.7354 38.0142 59.0954ZM47.5274 63.1754C47.0455 63.1754 46.6085 63.082 46.2166 62.8954C45.8182 62.702 45.4744 62.4254 45.1852 62.0654C44.9025 61.712 44.6808 61.282 44.5202 60.7754C44.366 60.2687 44.2889 59.6987 44.2889 59.0654C44.2889 58.432 44.366 57.8654 44.5202 57.3654C44.6808 56.8654 44.9025 56.442 45.1852 56.0954C45.4744 55.7487 45.8182 55.482 46.2166 55.2954C46.6085 55.1087 47.0455 55.0154 47.5274 55.0154C48.0029 55.0154 48.4399 55.112 48.8383 55.3054C49.2367 55.492 49.5804 55.7587 49.8696 56.1054C50.1587 56.452 50.3804 56.8754 50.5346 57.3754C50.6953 57.8754 50.7756 58.4387 50.7756 59.0654C50.7756 59.6987 50.6953 60.2687 50.5346 60.7754C50.3804 61.282 50.1587 61.712 49.8696 62.0654C49.5804 62.4254 49.2367 62.702 48.8383 62.8954C48.4399 63.082 48.0029 63.1754 47.5274 63.1754ZM47.5274 62.3054C47.868 62.3054 48.1732 62.2287 48.4431 62.0754C48.7194 61.922 48.9539 61.7054 49.1467 61.4254C49.3459 61.1387 49.5001 60.7987 49.6093 60.4054C49.7186 60.0054 49.7732 59.5587 49.7732 59.0654C49.7732 58.5787 49.7186 58.1387 49.6093 57.7454C49.5001 57.352 49.3459 57.0187 49.1467 56.7454C48.9539 56.472 48.7194 56.262 48.4431 56.1154C48.1732 55.9687 47.868 55.8954 47.5274 55.8954C47.1869 55.8954 46.8784 55.9687 46.6021 56.1154C46.3322 56.262 46.0977 56.472 45.8985 56.7454C45.7057 57.0187 45.5547 57.352 45.4455 57.7454C45.3362 58.1387 45.2816 58.5787 45.2816 59.0654C45.2816 59.5587 45.3362 60.0054 45.4455 60.4054C45.5547 60.7987 45.7057 61.1387 45.8985 61.4254C46.0977 61.7054 46.3322 61.922 46.6021 62.0754C46.8784 62.2287 47.1869 62.3054 47.5274 62.3054ZM52.4045 63.0354V55.1654H53.5419L55.0069 59.3854L55.566 60.9954H55.6142L56.1443 59.3854L57.5997 55.1654H58.7371V63.0354H57.8214V58.7054C57.8214 58.352 57.8342 57.962 57.8599 57.5354C57.8856 57.1154 57.9146 56.7287 57.9467 56.3754H57.8985L57.2913 58.1254L55.8262 62.2454H55.2864L53.8214 58.1254L53.2142 56.3754H53.166C53.1917 56.7287 53.2206 57.1154 53.2527 57.5354C53.2848 57.962 53.3009 58.352 53.3009 58.7054V63.0354H52.4045ZM60.819 63.0354V55.1654H61.9467L63.4214 59.3854L63.9708 60.9954H64.019L64.5491 59.3854L66.0045 55.1654H67.1419V63.0354H66.2262V58.7054C66.2262 58.352 66.2391 57.962 66.2648 57.5354C66.2969 57.1154 66.3258 56.7287 66.3515 56.3754H66.313L65.6961 58.1254L64.2407 62.2454H63.6913L62.2262 58.1254L61.6286 56.3754H61.5804C61.5997 56.7287 61.6254 57.1154 61.6575 57.5354C61.6897 57.962 61.7057 58.352 61.7057 58.7054V63.0354H60.819ZM69.2238 63.0354V55.1654H73.5997V56.0054H70.1877V58.4754H73.0599V59.3254H70.1877V62.1854H73.7154V63.0354H69.2238ZM76.2792 55.9654V58.8954H77.5515C78.1427 58.8954 78.5989 58.7687 78.9202 58.5154C79.235 58.262 79.3925 57.882 79.3925 57.3754C79.3925 56.8554 79.235 56.4887 78.9202 56.2754C78.5989 56.0687 78.1427 55.9654 77.5515 55.9654H76.2792ZM80.5684 63.0354H79.4792L77.6575 59.7154H76.2792V63.0354H75.3154V55.1654H77.6865C78.072 55.1654 78.4286 55.202 78.7563 55.2754C79.084 55.3554 79.3668 55.482 79.6045 55.6554C79.8423 55.8287 80.0254 56.0554 80.1539 56.3354C80.2824 56.6154 80.3467 56.962 80.3467 57.3754C80.3467 57.9887 80.1925 58.4787 79.884 58.8454C79.5756 59.212 79.1644 59.4654 78.6503 59.6054L80.5684 63.0354ZM81.5997 59.0954C81.5997 58.4687 81.6832 57.902 81.8503 57.3954C82.0238 56.8887 82.2616 56.462 82.5636 56.1154C82.8591 55.762 83.2158 55.492 83.6334 55.3054C84.0447 55.112 84.4913 55.0154 84.9732 55.0154C85.4358 55.0154 85.8407 55.1154 86.1877 55.3154C86.5346 55.5087 86.8206 55.7354 87.0455 55.9954L86.5057 56.6254C86.3065 56.4054 86.0848 56.2287 85.8407 56.0954C85.5965 55.962 85.3138 55.8954 84.9925 55.8954C84.6262 55.8954 84.2985 55.9687 84.0093 56.1154C83.7138 56.262 83.4632 56.4754 83.2575 56.7554C83.0455 57.0287 82.8816 57.362 82.766 57.7554C82.6503 58.1487 82.5925 58.5887 82.5925 59.0754C82.5925 59.5687 82.6503 60.0154 82.766 60.4154C82.8752 60.8087 83.0294 61.1454 83.2286 61.4254C83.4278 61.7054 83.672 61.922 83.9612 62.0754C84.2503 62.2287 84.578 62.3054 84.9443 62.3054C85.3106 62.3054 85.6318 62.2287 85.9081 62.0754C86.1844 61.922 86.4447 61.7054 86.6889 61.4254L87.2286 62.0354C86.933 62.3954 86.5957 62.6754 86.2166 62.8754C85.8375 63.0754 85.4037 63.1754 84.9154 63.1754C84.4399 63.1754 83.9997 63.0854 83.5949 62.9054C83.1901 62.7187 82.8399 62.452 82.5443 62.1054C82.2487 61.7587 82.0174 61.332 81.8503 60.8254C81.6832 60.312 81.5997 59.7354 81.5997 59.0954ZM88.6455 63.0354V55.1654H89.5997V63.0354H88.6455ZM92.6358 59.8354H94.9105L94.5539 58.6354C94.4126 58.1954 94.2808 57.7554 94.1587 57.3154C94.0367 56.882 93.9146 56.4354 93.7925 55.9754H93.7443C93.6286 56.4354 93.5097 56.882 93.3877 57.3154C93.2656 57.7554 93.1338 58.1954 92.9925 58.6354L92.6358 59.8354ZM95.8744 63.0354L95.1515 60.6354H92.3949L91.6624 63.0354H90.6792L93.2431 55.1654H94.3322L96.9057 63.0354H95.8744ZM97.9756 63.0354V55.1654H98.9395V62.1854H102.255V63.0354H97.9756Z" fill="#4169E1"/>
</svg>
