<svg width="43" height="31" viewBox="0 0 43 31" fill="none" xmlns="http://www.w3.org/2000/svg">
<path d="M42.898 11.5664L40.4371 5.41406C40.2283 4.89352 39.8681 4.44767 39.403 4.13426C38.9379 3.82085 38.3894 3.65432 37.8285 3.65625H31.75V2.25C31.75 1.87704 31.6018 1.51935 31.3381 1.25563C31.0744 0.991908 30.7167 0.84375 30.3438 0.84375H3.625C2.87908 0.84375 2.16371 1.14007 1.63626 1.66751C1.10882 2.19496 0.8125 2.91033 0.8125 3.65625V23.3438C0.8125 24.0897 1.10882 24.805 1.63626 25.3325C2.16371 25.8599 2.87908 26.1562 3.625 26.1562H6.61328C6.92308 27.3662 7.62677 28.4386 8.61341 29.2045C9.60004 29.9703 10.8135 30.386 12.0625 30.386C13.3115 30.386 14.525 29.9703 15.5116 29.2045C16.4982 28.4386 17.2019 27.3662 17.5117 26.1562H26.3008C26.6106 27.3662 27.3143 28.4386 28.3009 29.2045C29.2875 29.9703 30.501 30.386 31.75 30.386C32.999 30.386 34.2125 29.9703 35.1991 29.2045C36.1857 28.4386 36.8894 27.3662 37.1992 26.1562H40.1875C40.9334 26.1562 41.6488 25.8599 42.1762 25.3325C42.7037 24.805 43 24.0897 43 23.3438V12.0938C43.0005 11.913 42.9659 11.7339 42.898 11.5664ZM31.75 6.46875H37.8285L39.516 10.6875H31.75V6.46875ZM3.625 3.65625H28.9375V14.9062H3.625V3.65625ZM12.0625 27.5625C11.5062 27.5625 10.9625 27.3975 10.5 27.0885C10.0374 26.7795 9.67696 26.3402 9.46409 25.8263C9.25122 25.3124 9.19552 24.7469 9.30404 24.2013C9.41256 23.6557 9.68043 23.1546 10.0738 22.7613C10.4671 22.3679 10.9682 22.1001 11.5138 21.9915C12.0594 21.883 12.6249 21.9387 13.1388 22.1516C13.6527 22.3645 14.092 22.7249 14.401 23.1875C14.7101 23.65 14.875 24.1937 14.875 24.75C14.875 25.4959 14.5787 26.2113 14.0512 26.7387C13.5238 27.2662 12.8084 27.5625 12.0625 27.5625ZM26.3008 23.3438H17.5117C17.2019 22.1338 16.4982 21.0614 15.5116 20.2955C14.525 19.5297 13.3115 19.114 12.0625 19.114C10.8135 19.114 9.60004 19.5297 8.61341 20.2955C7.62677 21.0614 6.92308 22.1338 6.61328 23.3438H3.625V17.7188H28.9375V19.8826C28.2909 20.2564 27.7248 20.7548 27.2722 21.3489C26.8196 21.943 26.4894 22.6211 26.3008 23.3438ZM31.75 27.5625C31.1937 27.5625 30.65 27.3975 30.1875 27.0885C29.7249 26.7795 29.3645 26.3402 29.1516 25.8263C28.9387 25.3124 28.883 24.7469 28.9915 24.2013C29.1001 23.6557 29.3679 23.1546 29.7613 22.7613C30.1546 22.3679 30.6557 22.1001 31.2013 21.9915C31.7469 21.883 32.3124 21.9387 32.8263 22.1516C33.3402 22.3645 33.7795 22.7249 34.0885 23.1875C34.3976 23.65 34.5625 24.1937 34.5625 24.75C34.5625 25.4959 34.2662 26.2113 33.7387 26.7387C33.2113 27.2662 32.4959 27.5625 31.75 27.5625ZM40.1875 23.3438H37.1992C36.8857 22.1367 36.1807 21.0678 35.1946 20.3044C34.2085 19.541 32.9971 19.1262 31.75 19.125V13.5H40.1875V23.3438Z" fill="black"/>
</svg>
